<?xml version="1.0" encoding="iso-8859-1"?>
<svg id="ITDC" version="1.1" xmlns="http://www.w3.org/2000/svg" xmlns:xlink="http://www.w3.org/1999/xlink"
	 viewBox="-75.72 315.783 453.32 162.294">

	<path id="head" d="M-42.013,472.525c-10.568-4.215-20.448-11.618-26.45-23.408l0,0c-4.009-7.834-6.263-17.455-6.257-28.998l0,0
		c0-4.931,0.405-10.221,1.258-15.895l0,0c1.618-10.78,5.445-20.249,9.531-28.677l0,0c4.061-8.348,8.38-15.736,11.275-22.257l0,0
		c7.613-20.922,8.447-29.366,8.492-29.981l0,0c0-0.017,0-0.021,0-0.026l0,0l0.317-6.501l6.403,1.386
		c0.63,0.176,48.259,10.437,81.103,56.693l0,0c11.665,16.454,16.493,31.503,16.486,44.767l0,0c0.011,15.846-6.904,28.623-15.501,37.7
		l0,0c-8.646,9.115-18.858,14.813-26.909,17.292l0,0l-1.616-5.314l1.613,5.314c-5.269,1.579-15.473,3.437-27.663,3.456l0,0
		C-20.033,478.072-31.413,476.765-42.013,472.525L-42.013,472.525z M-42.285,357.268l-0.066,0.18l-0.073,0.165
		c-3.293,7.418-7.671,14.843-11.515,22.784l0,0c-3.853,7.932-7.17,16.311-8.541,25.473l0,0c-0.778,5.194-1.136,9.932-1.136,14.249
		l0,0c0.002,10.125,1.948,17.888,5.04,23.943l0,0c3.103,6.051,7.369,10.491,12.473,13.883l0,0c10.163,6.78,23.98,9.057,36.176,9.027
		l0,0c10.932,0.021,20.63-1.804,24.436-2.981l0,0l0,0c5.946-1.774,14.971-6.724,22.058-14.284l0,0
		c7.138-7.605,12.46-17.536,12.471-30.078l0,0c-0.004-10.527-3.771-23.257-14.442-38.347l0,0
		c-23.431-33.202-55.836-46.491-68.757-50.663l0,0C-35.291,335.845-37.595,344.377-42.285,357.268L-42.285,357.268z"/>
	<circle id="left-eye" cx="-20.005" cy="439.417" r="11.502"/>
	<circle id="right-eye" cx="18.91" cy="416.931" r="14.438"/>

	<g id="text">
		<path id="I" d="M80.5,356.123h26.1v96.1H80v-94.5C79.9,356.923,79.8,356.223,80.5,356.123"/>
		<path id="T" d="M195.8,356.123c-0.7,9.2-2.2,17.7-3.1,26.6h-21.9v69.4h-26.6v-68.9c-6.4-1.2-15.1-0.2-22.5-0.5c0.4-8.7-0.7-18.8,0.5-26.6
			H195.8L195.8,356.123z"/>
		<path id="D" d="M231.9,383.223v42.3c23.7,5,40-14,30.8-32.4c-4.6-9.1-14.7-12.9-30.3-11.5C231.8,381.723,231.8,382.523,231.9,383.223
			 M205.8,356.123c15.4,0.7,29.1-1,41.2,0c17.4,1.4,31,12.5,37.6,25.1c17.1,32.6-6.7,68.1-37.1,71c-12.9,1.2-26.5-0.9-42.3,0v-94.5
			C205.2,356.923,205.2,356.223,205.8,356.123"/>
		<path id="C" d="M377.6,366.523c-4.4,7.1-9,13.9-13.1,21.4c-5.3-2.8-9.3-7.9-19.3-7.3c-32,1.9-25.1,56.9,8.9,45.9c4.2-1.4,7-5.1,10.4-6.3
			c3.9,7.6,8.5,14.4,13.1,21.4c-8.1,6.6-15.3,10.6-26.6,11.5c-27.6,2.1-50.2-18.2-52.2-44.9c-2.1-27.8,16.6-51,44.4-53.3
			C359,353.723,368.5,359.923,377.6,366.523"/>
	</g>
</svg>
