<?xml version="1.0" encoding="utf-8"?>
<!-- Generator: Adobe Illustrator 19.2.0, SVG Export Plug-In . SVG Version: 6.00 Build 0)  -->
<svg version="1.1" id="Layer_1" xmlns="http://www.w3.org/2000/svg" xmlns:xlink="http://www.w3.org/1999/xlink" x="0px" y="0px"
	 viewBox="0 0 473.7 169.6" style="enable-background:new 0 0 473.7 169.6;" xml:space="preserve">
<style type="text/css">
	.st0{fill-rule:evenodd;clip-rule:evenodd;fill:#232022;}
</style>
<g>
	<g>
		<path class="st0" d="M457.9,53.6c-4.4,7.1-9,13.9-13.1,21.4c-5.3-2.8-9.3-7.9-19.3-7.3c-32.1,1.9-25.1,56.9,8.9,46
			c4.2-1.4,7-5.1,10.4-6.3c3.9,7.6,8.6,14.4,13.1,21.4c-8.1,6.6-15.3,10.6-26.6,11.5c-27.6,2.1-50.2-18.2-52.2-44.9
			c-2.1-27.8,16.6-51,44.4-53.3C439.4,40.8,448.8,46.9,457.9,53.6"/>
	</g>
	<g>
		<path class="st0" d="M160.8,43.1h26.1v96.1h-26.6V44.7C160.2,43.9,160.2,43.2,160.8,43.1"/>
	</g>
	<g>
		<path class="st0" d="M276.2,43.1c-0.7,9.2-2.2,17.7-3.1,26.6h-21.9v69.4h-26.6V70.3c-6.4-1.2-15.1-0.2-22.5-0.5
			c0.4-8.7-0.7-18.8,0.5-26.6H276.2z"/>
	</g>
	<g>
		<path class="st0" d="M312.2,70.3v42.3c23.7,5,40-14,30.8-32.4c-4.6-9.2-14.7-12.9-30.3-11.5C312.1,68.8,312.2,69.5,312.2,70.3
			 M286.1,43.1c15.4,0.7,29.2-1,41.3,0c17.4,1.4,31,12.5,37.6,25.1c17.1,32.7-6.7,68.2-37.1,71c-12.9,1.2-26.5-0.9-42.3,0V44.7
			C285.5,43.9,285.5,43.2,286.1,43.1"/>
	</g>
</g>
<g>
	<g>
		<path d="M37.4,159.5c-10.6-4.2-20.5-11.6-26.5-23.5l0,0c-4-7.8-6.3-17.5-6.3-29.1l0,0c0-5,0.4-10.3,1.3-16l0,0
			C9.1,69.3,21,52.8,26.9,39.3l0,0c7.8-21.3,8.6-30,8.7-30.6l0,0l0,0l0.3-5.9l5.8,1.2c0.6,0.2,48.8,10.5,81.9,57.3l0,0
			c11.8,16.6,16.6,31.8,16.6,45.1l0,0c0,15.9-6.9,28.7-15.6,37.8l0,0c-8.7,9.2-19,14.9-27,17.4l0,0l-1.5-4.8l1.4,4.8
			c-5.3,1.6-15.6,3.5-27.9,3.5l0,0C59.5,165.1,48,163.8,37.4,159.5L37.4,159.5z M36.3,42.9l-0.1,0.2l-0.1,0.2
			c-6.7,14.9-17.6,30.3-20.4,49.1l0,0c-0.8,5.3-1.2,10.1-1.2,14.6l0,0c0,10.4,2,18.3,5.2,24.6l0,0c3.2,6.2,7.6,10.8,12.9,14.3l0,0
			c10.5,7,24.6,9.3,37.1,9.3l0,0c11.2,0,21-1.8,25-3.1l0,0l0,0c6.2-1.8,15.4-6.9,22.7-14.7l0,0c7.3-7.8,12.8-18,12.8-31l0,0
			c0-10.8-3.9-23.9-14.8-39.3l0,0C91.1,32.7,57.3,19.3,44.6,15.3l0,0C43.5,20.5,41.2,29.3,36.3,42.9L36.3,42.9z"/>
	</g>
</g>
<g>
	<circle cx="99" cy="103.8" r="14.9"/>
</g>
<g>
	<path d="M71.6,126.4c0,6.6-5.3,11.9-11.9,11.9c-6.6,0-11.9-5.3-11.9-11.9c0-6.6,5.3-11.9,11.9-11.9
		C66.2,114.5,71.6,119.9,71.6,126.4z"/>
</g>
<g>
	<g>
		<path d="M268.4,149h2.1l4.6,7.4l4.5-7.4h2.1l-5.7,9.4v8.6h-1.8v-8.6L268.4,149z"/>
	</g>
	<g>
		<path d="M293.1,148.6c2.7,0,5,0.9,6.8,2.7c1.8,1.8,2.7,4,2.7,6.7c0,2.6-0.9,4.9-2.7,6.7c-1.8,1.8-4.1,2.7-6.7,2.7
			c-2.7,0-4.9-0.9-6.7-2.7c-1.8-1.8-2.7-4-2.7-6.6c0-1.7,0.4-3.3,1.2-4.8c0.8-1.5,2-2.6,3.4-3.5C289.9,149,291.5,148.6,293.1,148.6z
			 M293.2,150.3c-1.3,0-2.6,0.3-3.8,1c-1.2,0.7-2.1,1.6-2.8,2.8c-0.7,1.2-1,2.5-1,3.9c0,2.1,0.7,3.9,2.2,5.4
			c1.5,1.5,3.3,2.2,5.3,2.2c1.4,0,2.7-0.3,3.9-1c1.2-0.7,2.1-1.6,2.8-2.8c0.7-1.2,1-2.5,1-3.9c0-1.4-0.3-2.7-1-3.9
			c-0.7-1.1-1.6-2.1-2.8-2.8C295.9,150.7,294.6,150.3,293.2,150.3z"/>
	</g>
	<g>
		<path d="M306.4,149h1.8v10.8c0,1.3,0,2.1,0.1,2.4c0.1,0.7,0.3,1.3,0.6,1.8c0.3,0.5,0.8,0.9,1.5,1.2c0.7,0.3,1.4,0.5,2,0.5
			c0.6,0,1.2-0.1,1.7-0.4c0.5-0.3,1-0.6,1.4-1c0.4-0.4,0.6-1,0.8-1.6c0.1-0.5,0.2-1.4,0.2-2.8V149h1.8v10.8c0,1.6-0.2,2.9-0.5,3.9
			c-0.3,1-0.9,1.9-1.9,2.6c-0.9,0.7-2.1,1.1-3.4,1.1c-1.5,0-2.7-0.3-3.7-1c-1-0.7-1.7-1.6-2.1-2.7c-0.2-0.7-0.3-2-0.3-3.8V149z"/>
	</g>
	<g>
		<path d="M322.8,149h3.6c2,0,3.3,0.1,4,0.2c1.1,0.2,1.9,0.8,2.6,1.6c0.7,0.8,1,1.8,1,3c0,1-0.2,1.8-0.7,2.6c-0.5,0.7-1.1,1.3-2,1.7
			c-0.9,0.4-2,0.6-3.5,0.6l6.5,8.3h-2.2l-6.5-8.3h-1v8.3h-1.8V149z M324.6,150.8v6.1l3.1,0c1.2,0,2.1-0.1,2.7-0.3
			c0.6-0.2,1-0.6,1.3-1.1c0.3-0.5,0.5-1.1,0.5-1.7c0-0.6-0.2-1.1-0.5-1.6c-0.3-0.5-0.8-0.8-1.3-1.1c-0.5-0.2-1.4-0.3-2.6-0.3H324.6z
			"/>
	</g>
	<g>
		<path d="M344.5,149h1.8v18h-1.8V149z"/>
	</g>
	<g>
		<path d="M348.7,150.8V149h9.8v1.8h-4V167h-1.8v-16.2H348.7z"/>
	</g>
	<g>
		<path d="M368,149h3.6c2.1,0,3.4,0.1,4.1,0.3c1,0.3,1.9,0.8,2.5,1.6c0.7,0.8,1,1.8,1,3c0,1.2-0.3,2.2-1,3c-0.6,0.8-1.5,1.3-2.6,1.6
			c-0.8,0.2-2.3,0.3-4.6,0.3h-1.3v8.3H368V149z M369.8,150.8v6.1l3,0c1.2,0,2.1-0.1,2.7-0.3c0.6-0.2,1-0.6,1.3-1.1
			c0.3-0.5,0.5-1.1,0.5-1.7c0-0.6-0.2-1.2-0.5-1.6c-0.3-0.5-0.8-0.9-1.3-1.1c-0.5-0.2-1.4-0.3-2.6-0.3H369.8z"/>
	</g>
	<g>
		<path d="M390.2,149l8.4,18h-1.9l-2.8-5.9H386l-2.8,5.9h-2l8.5-18H390.2z M389.9,152.8l-3.1,6.5h6.1L389.9,152.8z"/>
	</g>
	<g>
		<path d="M401.4,149h3.6c2,0,3.3,0.1,4,0.2c1.1,0.2,1.9,0.8,2.6,1.6c0.7,0.8,1,1.8,1,3c0,1-0.2,1.8-0.7,2.6c-0.5,0.7-1.1,1.3-2,1.7
			c-0.9,0.4-2,0.6-3.5,0.6l6.5,8.3h-2.2l-6.5-8.3h-1v8.3h-1.8V149z M403.2,150.8v6.1l3.1,0c1.2,0,2.1-0.1,2.7-0.3
			c0.6-0.2,1-0.6,1.3-1.1c0.3-0.5,0.5-1.1,0.5-1.7c0-0.6-0.2-1.1-0.5-1.6c-0.3-0.5-0.8-0.8-1.3-1.1c-0.5-0.2-1.4-0.3-2.6-0.3H403.2z
			"/>
	</g>
	<g>
		<path d="M414.7,150.8V149h9.8v1.8h-4V167h-1.8v-16.2H414.7z"/>
	</g>
	<g>
		<path d="M427.1,167v-18h0.4l12,13.8V149h1.8v18h-0.4L429,153.4V167H427.1z"/>
	</g>
	<g>
		<path d="M445.6,149h10.3v1.8h-8.5v5.6h8.4v1.8h-8.4v7.1h8.4v1.8h-10.2V149z"/>
	</g>
	<g>
		<path d="M459.1,149h3.6c2,0,3.3,0.1,4.1,0.2c1.1,0.2,1.9,0.8,2.6,1.6c0.7,0.8,1,1.8,1,3c0,1-0.2,1.8-0.7,2.6
			c-0.5,0.7-1.1,1.3-2,1.7c-0.9,0.4-2,0.6-3.5,0.6l6.5,8.3h-2.2l-6.5-8.3h-1v8.3h-1.8V149z M460.9,150.8v6.1l3.1,0
			c1.2,0,2.1-0.1,2.7-0.3c0.6-0.2,1-0.6,1.3-1.1c0.3-0.5,0.5-1.1,0.5-1.7c0-0.6-0.2-1.1-0.5-1.6c-0.3-0.5-0.8-0.8-1.3-1.1
			c-0.5-0.2-1.4-0.3-2.6-0.3H460.9z"/>
	</g>
</g>
</svg>
