<?xml version="1.0" encoding="utf-8"?>
<!-- Generator: Adobe Illustrator 19.0.0, SVG Export Plug-In . SVG Version: 6.00 Build 0)  -->
<svg version="1.1" id="Layer_1" xmlns="http://www.w3.org/2000/svg" xmlns:xlink="http://www.w3.org/1999/xlink" x="0px" y="0px"
	 viewBox="0 0 8503.9 5669.3" enable-background="new 0 0 8503.9 5669.3" xml:space="preserve">
<path id="XMLID_13_" fill="#FFFFFF" d="M3038.5,2543.6c44,0,85.4,6.7,124,19.9c38.7,13.3,72.5,31.6,101.5,54.8
	c29,23.3,52.4,50.1,70.1,80.3c17.7,30.3,27.6,62.9,29.8,97.8v458.4c0,24.1-10.7,44.2-32.2,60.4c-21.5,16.2-46.7,24.3-75.7,24.3
	c-31.2,0-57.2-8.1-78.1-24.3c-21-16.2-31.4-36.3-31.4-60.4v-448.5c0-24.1-10.5-44.2-31.4-60.4c-21-16.2-46.5-24.3-76.5-24.3
	c-30.1,0-55.9,8.1-77.3,24.3c-21.5,16.2-32.2,36.4-32.2,60.4v448.5c0,24.1-10.4,44.2-31.4,60.4c-20.9,16.2-46.4,24.3-76.5,24.3
	c-30,0-55.6-8.1-76.5-24.3c-20.9-16.2-31.4-36.3-31.4-60.4v-448.5c0-24.1-10.5-44.2-31.4-60.4c-21-16.2-47-24.3-78.1-24.3
	c-30.1,0-55.6,8.1-76.5,24.3c-20.9,16.2-31.4,36.4-31.4,60.4v448.5c0,24.1-10.5,44.2-31.4,60.4c-20.9,16.2-47,24.3-78.1,24.3
	c-30.1,0-55.6-8.1-76.5-24.3c-21-16.2-31.4-36.3-31.4-60.4v-458.4c0-32.4,8.3-63.9,25-94.7c16.6-30.7,39.8-57.7,69.3-81
	c29.5-23.3,64.1-41.9,103.9-56.1c39.7-14.1,82.2-21.2,127.3-21.2c40.8,0,79.2,5.8,115.2,17.4c36,11.6,70.1,27.4,102.3,47.3
	c31.1-19.1,64.7-34.7,100.7-46.7C2957.7,2549.7,2996.6,2543.6,3038.5,2543.6z"/>
<path id="XMLID_12_" fill="#FFFFFF" d="M4746.9,3324.7c-19,9.9-39.3,14.9-61,14.9c-20.6,0-40.6-5.4-60.1-16.2
	c-19.5-10.8-33.5-23.7-42.2-38.6L4265,2658.2c-10.8-21.6-10-43,2.4-64.2c12.4-21.2,32.7-36.3,60.9-45.5c28.2-8.3,56.1-7.7,83.7,1.9
	c27.6,9.6,46.8,25.5,57.7,48l216.1,426.1l216.1-426.1c10.8-22.4,30.1-38.4,57.7-48c27.6-9.5,55.5-10.2,83.7-1.9
	c28.1,9.1,48.2,24.3,60.1,45.5c11.9,21.2,12.4,42.6,1.6,64.2l-316.8,626.6C4779.6,3301.4,4765.8,3314.7,4746.9,3324.7z"/>
<path id="XMLID_11_" fill="#FFFFFF" d="M5286,2544.9c28.5,0,53,8.3,73.6,24.9c20.6,16.6,30.9,36.1,30.9,58.5v627.8
	c0,23.3-10.3,43-30.9,59.2c-20.6,16.2-45.1,24.3-73.6,24.3c-30.6,0-56.2-8.1-76.8-24.3c-20.6-16.2-30.9-35.9-30.9-59.2v-627.8
	c0-22.4,10.3-41.9,30.9-58.5C5229.8,2553.2,5255.4,2544.9,5286,2544.9z"/>
<path id="XMLID_41_" fill="#FFFFFF" d="M5803.4,2543.6c47.5,0,93.7,7.3,138.5,21.8c44.9,14.6,84.3,34.7,118.3,60.4
	c34,25.8,61.3,55.6,81.8,89.7c20.6,34,30.8,71,30.8,110.9v230.4c0,37.4-10,73.1-30,107.1c-20,34.1-46.7,64.2-80.2,90.3
	c-33.5,26.2-72.7,46.9-117.5,62.3c-44.8,15.4-92.1,23-141.8,23h-220.4c-29.1,0-54.8-8.1-77-24.3c-22.1-16.2-33.2-36.3-33.2-60.4
	v-626.6c0-21.6,10.5-41.1,31.6-58.5c21.1-17.4,47.3-26.2,78.6-26.2H5803.4z M5691.5,2713v457.2h111.9c20.5,0,40-2.9,58.3-8.7
	c18.3-5.8,34.2-13.9,47.8-24.3c13.5-10.4,24-22.4,31.6-36.1c7.5-13.7,11.3-28.4,11.3-44.2v-230.4c0-15.8-3.8-30.5-11.3-44.2
	c-7.6-13.7-18.1-25.7-31.6-36.1c-13.6-10.4-29.5-18.5-47.8-24.3c-18.4-5.8-37.8-8.7-58.3-8.7H5691.5z"/>
<path id="XMLID_8_" fill="#FFFFFF" d="M6847.9,3196.4c20.8,16.6,31.1,36.1,31.1,58.6c0,24.1-10.3,44.2-31.1,60.4
	c-20.8,16.2-46,24.3-75.8,24.3h-424.3c-27.7,0-52.4-8.1-74.2-24.3c-21.8-16.2-32.7-36.3-32.7-60.4v-626.6
	c0-21.6,10.1-41.1,30.3-58.5c20.2-17.4,45.7-26.2,76.6-26.2h424.3c29.8,0,55,8.3,75.8,24.9c20.8,16.6,31.1,36.5,31.1,59.8
	c0,24.1-10.3,44-31.1,59.8c-20.8,15.8-46,23.7-75.8,23.7h-319v120.8h212.1c28.7,0,53.7,8.3,75,24.9c21.3,16.6,31.9,36.5,31.9,59.8
	c0,23.3-10.7,43-31.9,59.2c-21.3,16.2-46.3,24.3-75,24.3h-212.1v170.7h319C6801.9,3171.4,6827.1,3179.8,6847.9,3196.4z"/>
<path id="XMLID_27_" fill="#FFFFFF" d="M7318,2538.9c49,0,94.9,7.4,137.5,22.1c42.6,14.7,80.2,35.2,112.7,61.3
	c32.5,26.1,58.6,56.5,78.4,91c19.7,34.5,30.6,72,32.8,112.5v232.5c-2.1,37.9-12.5,74.4-31.1,109.3c-18.7,35-44,65.7-76,92.2
	c-31.9,26.5-69.5,47.6-112.7,63.2c-43.2,15.6-90.4,23.4-141.5,23.4c-49.1,0-95.1-7.3-138.3-22.1c-43.1-14.7-81.3-35.2-114.3-61.3
	c-33-26.1-59.4-56.6-79.2-91.6c-19.7-35-30.6-72.7-32.7-113.1v-232.5c1-37.9,11.2-74.3,30.4-109.3c19.2-35,45-65.5,77.5-91.6
	c32.5-26.1,70.9-47,115.1-62.5C7220.7,2546.7,7267.8,2538.9,7318,2538.9z M7318,3175.7c20.2,0,39.2-2.9,56.8-8.9
	c17.6-5.9,33-14.3,46.3-25.3c13.3-10.9,24-23.4,32-37.3c8-13.9,12-29.3,12-46.1v-232.5c0-16-4-31.2-12-45.5
	c-8-14.3-18.7-26.7-32-37.3c-13.3-10.5-28.8-18.7-46.3-24.7c-17.6-5.9-36.5-8.8-56.8-8.8c-21.3,0-40.8,3-58.3,8.8
	c-17.6,5.9-33.4,14.1-47.2,24.7c-13.9,10.5-24.6,22.9-32,37.3c-7.5,14.4-11.2,29.5-11.2,45.5v232.5c0,32.8,14.4,60.7,43.2,83.4
	C7241.3,3164.4,7276.4,3175.7,7318,3175.7z"/>
<path id="XMLID_19_" fill="#FFFFFF" d="M1128,3532.8c-98.2-39.1-189.9-107.9-245.6-217.4l0,0c-37.2-72.8-58.2-162.1-58.1-269.3l0,0
	c0-45.8,3.8-94.9,11.7-147.6l0,0c15-100.1,50.6-188,88.5-266.3l0,0c37.7-77.5,77.8-146.1,104.7-206.7l0,0
	c70.7-194.3,78.5-272.7,78.9-278.4l0,0c0-0.1,0-0.2,0-0.2l0,0l3-60.4l59.5,12.9c5.9,1.6,448.2,96.9,753.2,526.5l0,0
	c108.3,152.8,153.2,292.6,153.1,415.7l0,0c0.1,147.1-64.1,265.8-143.9,350.1l0,0c-80.3,84.7-175.2,137.6-249.9,160.6l0,0l-15-49.4
	l15,49.4c-48.9,14.7-143.7,31.9-256.9,32.1l0,0C1332.1,3584.3,1226.4,3572.2,1128,3532.8L1128,3532.8z M1125.5,2462.4l-0.6,1.7
	l-0.7,1.5c-30.6,68.9-71.2,137.8-106.9,211.6l0,0c-35.8,73.7-66.6,151.5-79.3,236.6l0,0c-7.2,48.2-10.6,92.2-10.6,132.3l0,0
	c0,94,18.1,166.1,46.8,222.4l0,0c28.8,56.2,68.4,97.4,115.8,128.9l0,0c94.4,63,222.7,84.1,336,83.8l0,0
	c101.5,0.2,191.6-16.8,226.9-27.7l0,0l0,0c55.2-16.5,139-62.4,204.8-132.7l0,0c66.3-70.6,115.7-162.9,115.8-279.3l0,0
	c0-97.8-35-216-134.1-356.1l0,0c-217.6-308.3-518.6-431.7-638.6-470.5l0,0C1190.4,2263.4,1169,2342.7,1125.5,2462.4L1125.5,2462.4z"
	/>
<path id="XMLID_3_" fill="#FFFFFF" d="M1837.6,3017.3c0,79.1-64.2,143.3-143.3,143.3c-79.1,0-143.3-64.1-143.3-143.3
	c0-79.1,64.2-143.3,143.3-143.3C1773.4,2874,1837.6,2938.2,1837.6,3017.3z"/>
<path id="XMLID_2_" fill="#FFFFFF" d="M1449.5,3224.6c0,63.6-51.5,115.1-115.1,115.1c-63.6,0-115.1-51.5-115.1-115.1
	s51.5-115.1,115.1-115.1C1397.9,3109.5,1449.5,3161,1449.5,3224.6z"/>
<path id="XMLID_1_" fill="#FFFFFF" d="M3475.7,2570.5c-23.2,13.3-35.7,29.2-39.9,48.6l0,0c-1,4.5-1.5,8.9-1.5,13.3l0,0
	c0,14.4,5.2,28.2,16.2,41.9l0,0l262.7,289.2v291.4c0.1,21.2,8.9,37.8,28.6,52.9l0,0c19.8,14.9,43.4,22.3,71.9,22.4l0,0
	c27.4,0,50.4-7.5,70.3-22.4l0,0c19.7-15,28.4-31.7,28.5-52.9l0,0v-291.4l262.8-289.2c12.7-13.9,18.2-27.2,18.3-41l0,0
	c0-4.5-0.6-9-1.9-13.7l0,0c-5.2-19.5-18.7-35.6-43.1-49l0,0l4.5-8.3l-4.6,8.2c-16.7-9.3-34.7-14-54.8-14l0,0
	c-6.3,0-12.7,0.5-19.3,1.4l0,0c-27.9,4-48.8,14.9-64.6,33.1l0,0l-196.1,218.3L3614,2590.7c-14.6-17.9-34.8-28.7-62.7-32.7l0,0
	c-6.6-0.9-13.1-1.4-19.4-1.4l0,0C3511.6,2556.6,3493,2561.2,3475.7,2570.5L3475.7,2570.5z"/>
</svg>
