<?xml version="1.0" encoding="iso-8859-1"?>
<svg id="MYVIDEO" version="1.1" xmlns="http://www.w3.org/2000/svg" xmlns:xlink="http://www.w3.org/1999/xlink"
	 viewBox="-159 359.104 291.262 75.896">

	<path id="head" d="M-142.386,432.409c-4.932-1.967-9.543-5.422-12.344-10.924l0,0c-1.871-3.656-2.923-8.146-2.92-13.533l0,0
		c0-2.301,0.189-4.77,0.587-7.418l0,0c0.755-5.031,2.541-9.45,4.448-13.383l0,0c1.895-3.896,3.911-7.344,5.262-10.387l0,0
		c3.553-9.764,3.942-13.705,3.963-13.992l0,0c0-0.008,0-0.01,0-0.012l0,0l0.148-3.034l2.988,0.647
		c0.294,0.082,22.522,4.871,37.85,26.458l0,0c5.444,7.679,7.697,14.702,7.694,20.892l0,0c0.005,7.395-3.222,13.358-7.234,17.594l0,0
		c-4.035,4.254-8.801,6.913-12.558,8.07l0,0l-0.754-2.48l0.753,2.48c-2.459,0.737-7.221,1.604-12.91,1.613l0,0
		C-132.128,434.998-137.439,434.388-142.386,432.409L-142.386,432.409z M-142.513,378.62l-0.031,0.084l-0.034,0.077
		c-1.537,3.462-3.58,6.927-5.374,10.633l0,0c-1.798,3.702-3.346,7.612-3.986,11.888l0,0c-0.363,2.424-0.53,4.635-0.53,6.65l0,0
		c0.001,4.725,0.909,8.348,2.352,11.174l0,0c1.448,2.824,3.439,4.896,5.821,6.479l0,0c4.743,3.164,11.191,4.227,16.883,4.213l0,0
		c5.102,0.01,9.628-0.842,11.404-1.391l0,0l0,0c2.775-0.828,6.987-3.138,10.294-6.666l0,0c3.331-3.549,5.815-8.184,5.82-14.037l0,0
		c-0.002-4.913-1.76-10.854-6.74-17.896l0,0c-10.935-15.495-26.058-21.697-32.088-23.644l0,0
		C-139.249,368.622-140.324,372.604-142.513,378.62L-142.513,378.62z"/>

	<circle id="left-eye" cx="-132.115" cy="416.958" r="5.368"/>
	<circle id="right-eye" cx="-113.954" cy="406.464" r="6.738"/>

	<g id="text">
		<g id="MY">
			<path id="M" d="M-45.574,391.518c1.683,0,3.263,0.254,4.742,0.762c1.478,0.508,2.771,1.207,3.879,2.096c1.109,0.889,2.002,1.912,2.679,3.07
				c0.679,1.16,1.058,2.406,1.14,3.738v17.525c0,0.92-0.41,1.689-1.232,2.309c-0.82,0.619-1.785,0.929-2.894,0.929
				c-1.191,0-2.187-0.31-2.986-0.929c-0.801-0.619-1.2-1.389-1.2-2.309v-17.144c0-0.92-0.4-1.689-1.201-2.309s-1.777-0.93-2.925-0.93
				c-1.15,0-2.135,0.311-2.956,0.93c-0.821,0.619-1.231,1.389-1.231,2.309v17.145c0,0.92-0.399,1.689-1.201,2.309
				c-0.8,0.619-1.775,0.929-2.925,0.929c-1.149,0-2.124-0.31-2.924-0.929c-0.8-0.619-1.2-1.389-1.2-2.309v-17.145
				c0-0.92-0.4-1.689-1.202-2.309c-0.8-0.619-1.795-0.93-2.987-0.93c-1.149,0-2.124,0.311-2.925,0.93c-0.8,0.619-1.2,1.389-1.2,2.309
				v17.145c0,0.92-0.4,1.689-1.202,2.309c-0.799,0.619-1.795,0.929-2.986,0.929c-1.15,0-2.125-0.31-2.924-0.929
				c-0.801-0.619-1.202-1.389-1.202-2.309v-17.526c0-1.237,0.318-2.443,0.955-3.619c0.635-1.174,1.519-2.205,2.648-3.094
				c1.129-0.89,2.452-1.604,3.971-2.145c1.518-0.539,3.142-0.809,4.865-0.809c1.561,0,3.027,0.223,4.403,0.666
				c1.375,0.445,2.679,1.049,3.91,1.811c1.19-0.73,2.473-1.326,3.849-1.787C-48.663,391.749-47.175,391.518-45.574,391.518z"/>
			<path id="Y" d="M-2.959,392.248c0.988,0.541,1.598,1.239,1.824,2.096c0.225,0.857-0.012,1.668-0.713,2.43l-9.949,10.953v11
				c0,0.92-0.412,1.689-1.236,2.309s-1.793,0.929-2.904,0.929c-1.153,0-2.142-0.31-2.967-0.929c-0.824-0.619-1.235-1.389-1.235-2.309
				v-11l-9.95-10.953c-0.617-0.762-0.834-1.572-0.648-2.43c0.186-0.856,0.752-1.555,1.699-2.096c0.947-0.506,1.988-0.682,3.121-0.522
				s2.008,0.618,2.627,1.38l7.354,8.049l7.23-8.049c0.658-0.762,1.555-1.221,2.689-1.38C-4.887,391.566-3.865,391.742-2.959,392.248z"
				/>
		</g>
		<g id="VIDEO">
			<path id="V" fill="#BB2026" d="M19.726,421.071c-0.726,0.381-1.502,0.571-2.33,0.571c-0.787,0-1.553-0.206-2.299-0.619
				c-0.745-0.412-1.283-0.905-1.615-1.476L1.308,395.594c-0.415-0.825-0.384-1.643,0.093-2.452c0.476-0.81,1.252-1.39,2.33-1.738
				c1.077-0.317,2.144-0.293,3.199,0.071c1.056,0.365,1.79,0.977,2.206,1.833l8.26,16.286l8.262-16.286
				c0.414-0.856,1.15-1.468,2.205-1.833c1.057-0.364,2.123-0.389,3.199-0.071c1.076,0.349,1.842,0.929,2.299,1.738
				c0.455,0.81,0.475,1.627,0.063,2.452L21.31,419.547C20.977,420.182,20.449,420.69,19.726,421.071z"/>
			<path id="I" fill="#BB2026" d="M40.335,391.26c1.09,0,2.027,0.318,2.813,0.953c0.789,0.635,1.182,1.381,1.182,2.238v24
				c0,0.889-0.393,1.643-1.182,2.262c-0.785,0.619-1.723,0.929-2.813,0.929c-1.17,0-2.148-0.31-2.936-0.929
				c-0.785-0.619-1.18-1.373-1.18-2.262v-24c0-0.857,0.395-1.604,1.18-2.238C38.187,391.579,39.165,391.26,40.335,391.26z"/>
			<path id="D" fill="#BB2026" d="M60.112,391.213c1.816,0,3.582,0.277,5.297,0.832c1.713,0.557,3.221,1.327,4.521,2.311
				c1.301,0.984,2.344,2.127,3.129,3.43c0.785,1.301,1.176,2.713,1.176,4.237v8.81c0,1.429-0.381,2.795-1.145,4.095
				c-0.766,1.302-1.787,2.452-3.066,3.453c-1.279,1-2.779,1.794-4.492,2.381c-1.713,0.587-3.52,0.881-5.42,0.881h-8.424
				c-1.115,0-2.096-0.31-2.943-0.929c-0.847-0.619-1.27-1.389-1.27-2.309v-23.953c0-0.826,0.402-1.572,1.207-2.238
				c0.807-0.666,1.807-1,3.006-1L60.112,391.213L60.112,391.213z M55.837,397.689v17.477h4.275c0.785,0,1.527-0.11,2.23-0.333
				c0.701-0.223,1.311-0.531,1.828-0.928c0.516-0.396,0.918-0.857,1.207-1.382c0.289-0.525,0.434-1.087,0.434-1.69v-8.81
				c0-0.603-0.145-1.167-0.434-1.69c-0.289-0.523-0.691-0.984-1.207-1.381c-0.518-0.396-1.127-0.707-1.828-0.93
				c-0.703-0.221-1.445-0.333-2.23-0.333C60.112,397.689,55.837,397.689,55.837,397.689z"/>
			<path id="E" fill="#BB2026" d="M100.042,416.167c0.793,0.635,1.189,1.381,1.189,2.238c0,0.92-0.396,1.689-1.189,2.309
				c-0.793,0.62-1.758,0.929-2.896,0.929H80.925c-1.059,0-2.004-0.31-2.836-0.929c-0.834-0.619-1.25-1.389-1.25-2.309v-23.953
				c0-0.826,0.385-1.572,1.158-2.238c0.771-0.666,1.748-1,2.928-1h16.221c1.139,0,2.104,0.317,2.896,0.952
				c0.793,0.636,1.189,1.397,1.189,2.286c0,0.921-0.396,1.683-1.189,2.285c-0.793,0.604-1.758,0.904-2.896,0.904H84.95v4.62h8.109
				c1.098,0,2.053,0.317,2.867,0.952c0.813,0.635,1.219,1.397,1.219,2.285c0,0.89-0.406,1.644-1.219,2.263
				c-0.814,0.618-1.77,0.929-2.867,0.929H84.95v6.523h12.195C98.284,415.213,99.249,415.532,100.042,416.167z"/>
			<path id="O" fill="#BB2026" d="M118.013,391.032c1.875,0,3.627,0.282,5.258,0.846c1.629,0.563,3.064,1.345,4.307,2.342
				c1.244,0.999,2.242,2.158,2.996,3.479c0.754,1.321,1.172,2.753,1.252,4.299v8.889c-0.08,1.449-0.479,2.842-1.189,4.178
				c-0.715,1.338-1.682,2.513-2.904,3.526c-1.221,1.015-2.658,1.82-4.309,2.415c-1.65,0.598-3.455,0.895-5.41,0.895
				c-1.875,0-3.637-0.281-5.287-0.846c-1.65-0.563-3.107-1.344-4.369-2.343c-1.264-0.997-2.273-2.165-3.027-3.501
				c-0.754-1.337-1.17-2.779-1.252-4.324v-8.889c0.039-1.449,0.428-2.842,1.162-4.178c0.732-1.336,1.721-2.504,2.963-3.503
				c1.244-0.997,2.709-1.794,4.4-2.391C114.294,391.331,116.097,391.032,118.013,391.032z M118.013,415.377
				c0.773,0,1.498-0.112,2.17-0.338c0.672-0.225,1.264-0.547,1.771-0.967c0.51-0.418,0.918-0.893,1.223-1.424
				c0.307-0.532,0.459-1.119,0.459-1.764v-8.889c0-0.611-0.152-1.19-0.459-1.738c-0.305-0.548-0.713-1.022-1.223-1.425
				c-0.508-0.402-1.1-0.716-1.771-0.942c-0.672-0.225-1.396-0.338-2.17-0.338c-0.816,0-1.559,0.113-2.23,0.338
				c-0.674,0.227-1.275,0.54-1.803,0.942c-0.531,0.402-0.939,0.877-1.223,1.425c-0.287,0.548-0.428,1.127-0.428,1.738v8.889
				c0,1.256,0.549,2.318,1.65,3.188C115.079,414.943,116.423,415.377,118.013,415.377z"/>
		</g>
	</g>
</svg>
