<?xml version="1.0" encoding="utf-8"?>
<!-- Generator: Adobe Illustrator 19.0.0, SVG Export Plug-In . SVG Version: 6.00 Build 0)  -->
<svg version="1.1" id="Layer_1" xmlns="http://www.w3.org/2000/svg" xmlns:xlink="http://www.w3.org/1999/xlink" x="0px" y="0px"
	 viewBox="0 0 283.5 283.5" enable-background="new 0 0 283.5 283.5" xml:space="preserve">
<rect fill="#BA2428" width="283.5" height="283.5"/>
<g>
	<path fill="#F8F7F7" d="M88.1,201.1c0.8,0,1.6,0.1,2.3,0.4c0.7,0.2,1.3,0.6,1.9,1c0.5,0.4,1,0.9,1.3,1.5c0.3,0.6,0.5,1.2,0.6,1.8
		v8.5c0,0.4-0.2,0.8-0.6,1.1c-0.4,0.3-0.9,0.5-1.4,0.5c-0.6,0-1.1-0.2-1.5-0.5c-0.4-0.3-0.6-0.7-0.6-1.1V206c0-0.4-0.2-0.8-0.6-1.1
		c-0.4-0.3-0.9-0.5-1.4-0.5c-0.6,0-1,0.1-1.4,0.5c-0.4,0.3-0.6,0.7-0.6,1.1v8.3c0,0.4-0.2,0.8-0.6,1.1c-0.4,0.3-0.9,0.5-1.4,0.5
		c-0.6,0-1-0.2-1.4-0.5c-0.4-0.3-0.6-0.7-0.6-1.1V206c0-0.4-0.2-0.8-0.6-1.1c-0.4-0.3-0.9-0.5-1.4-0.5c-0.6,0-1,0.1-1.4,0.5
		c-0.4,0.3-0.6,0.7-0.6,1.1v8.3c0,0.4-0.2,0.8-0.6,1.1c-0.4,0.3-0.9,0.5-1.4,0.5c-0.6,0-1-0.2-1.4-0.5c-0.4-0.3-0.6-0.7-0.6-1.1
		v-8.5c0-0.6,0.2-1.2,0.5-1.8c0.3-0.6,0.7-1.1,1.3-1.5c0.5-0.4,1.2-0.8,1.9-1c0.7-0.3,1.5-0.4,2.4-0.4c0.8,0,1.5,0.1,2.1,0.3
		c0.7,0.2,1.3,0.5,1.9,0.9c0.6-0.4,1.2-0.6,1.9-0.9C86.6,201.2,87.3,201.1,88.1,201.1z"/>
	<path fill="#F8F7F7" d="M108.8,201.5c0.5,0.3,0.8,0.6,0.9,1c0.1,0.4,0,0.8-0.3,1.2l-4.8,5.3v5.3c0,0.4-0.2,0.8-0.6,1.1
		c-0.4,0.3-0.9,0.5-1.4,0.5c-0.6,0-1-0.2-1.4-0.5c-0.4-0.3-0.6-0.7-0.6-1.1V209l-4.8-5.3c-0.3-0.4-0.4-0.8-0.3-1.2
		c0.1-0.4,0.4-0.8,0.8-1c0.5-0.2,1-0.3,1.5-0.3c0.5,0.1,1,0.3,1.3,0.7l3.6,3.9l3.5-3.9c0.3-0.4,0.8-0.6,1.3-0.7
		C107.8,201.1,108.3,201.2,108.8,201.5z"/>
	<path fill="#F8F7F7" d="M96.2,201.6c-0.4,0.2-0.7,0.5-0.7,0.9l0,0c0,0.1,0,0.2,0,0.2l0,0c0,0.3,0.1,0.5,0.3,0.8l0,0l4.9,5.4v5.4
		c0,0.4,0.2,0.7,0.5,1l0,0c0.4,0.3,0.8,0.4,1.3,0.4l0,0c0.5,0,0.9-0.1,1.3-0.4l0,0c0.4-0.3,0.5-0.6,0.5-1l0,0v-5.4l4.9-5.4
		c0.2-0.3,0.3-0.5,0.3-0.8l0,0c0-0.1,0-0.2,0-0.3l0,0c-0.1-0.4-0.3-0.7-0.8-0.9l0,0l0.1-0.2l-0.1,0.2c-0.3-0.2-0.6-0.3-1-0.3l0,0
		c-0.1,0-0.2,0-0.4,0l0,0c-0.5,0.1-0.9,0.3-1.2,0.6l0,0l-3.6,4.1l-3.7-4.1c-0.3-0.3-0.6-0.5-1.2-0.6l0,0c-0.1,0-0.2,0-0.4,0l0,0
		C96.8,201.3,96.5,201.4,96.2,201.6L96.2,201.6z"/>
	<path fill="#F8F7F7" d="M119.8,215.6c-0.4,0.2-0.7,0.3-1.1,0.3c-0.4,0-0.8-0.1-1.1-0.3c-0.4-0.2-0.6-0.4-0.8-0.7l-5.9-11.6
		c-0.2-0.4-0.2-0.8,0-1.2c0.2-0.4,0.6-0.7,1.1-0.8c0.5-0.2,1-0.1,1.6,0c0.5,0.2,0.9,0.5,1.1,0.9l4,7.9l4-7.9
		c0.2-0.4,0.6-0.7,1.1-0.9c0.5-0.2,1-0.2,1.6,0c0.5,0.2,0.9,0.5,1.1,0.8c0.2,0.4,0.2,0.8,0,1.2l-5.9,11.6
		C120.4,215.2,120.1,215.4,119.8,215.6z"/>
	<path fill="#F8F7F7" d="M129.8,201.1c0.5,0,1,0.2,1.4,0.5c0.4,0.3,0.6,0.7,0.6,1.1v11.7c0,0.4-0.2,0.8-0.6,1.1
		c-0.4,0.3-0.8,0.5-1.4,0.5c-0.6,0-1-0.2-1.4-0.5c-0.4-0.3-0.6-0.7-0.6-1.1v-11.7c0-0.4,0.2-0.8,0.6-1.1
		C128.7,201.3,129.2,201.1,129.8,201.1z"/>
	<path fill="#F8F7F7" d="M139.4,201.1c0.9,0,1.7,0.1,2.6,0.4c0.8,0.3,1.6,0.6,2.2,1.1c0.6,0.5,1.1,1,1.5,1.7
		c0.4,0.6,0.6,1.3,0.6,2.1v4.3c0,0.7-0.2,1.4-0.6,2c-0.4,0.6-0.9,1.2-1.5,1.7c-0.6,0.5-1.4,0.9-2.2,1.2c-0.8,0.3-1.7,0.4-2.6,0.4
		h-4.1c-0.5,0-1-0.2-1.4-0.5c-0.4-0.3-0.6-0.7-0.6-1.1v-11.6c0-0.4,0.2-0.8,0.6-1.1c0.4-0.3,0.9-0.5,1.5-0.5H139.4z M137.3,204.3
		v8.5h2.1c0.4,0,0.7-0.1,1.1-0.2c0.3-0.1,0.6-0.3,0.9-0.5c0.2-0.2,0.4-0.4,0.6-0.7c0.1-0.3,0.2-0.5,0.2-0.8v-4.3
		c0-0.3-0.1-0.6-0.2-0.8c-0.1-0.3-0.3-0.5-0.6-0.7c-0.3-0.2-0.5-0.3-0.9-0.5c-0.3-0.1-0.7-0.2-1.1-0.2H137.3z"/>
	<path fill="#F8F7F7" d="M158.8,213.2c0.4,0.3,0.6,0.7,0.6,1.1c0,0.4-0.2,0.8-0.6,1.1c-0.4,0.3-0.9,0.5-1.4,0.5h-7.9
		c-0.5,0-1-0.2-1.4-0.5c-0.4-0.3-0.6-0.7-0.6-1.1v-11.6c0-0.4,0.2-0.8,0.6-1.1c0.4-0.3,0.8-0.5,1.4-0.5h7.9c0.6,0,1,0.2,1.4,0.5
		c0.4,0.3,0.6,0.7,0.6,1.1c0,0.4-0.2,0.8-0.6,1.1c-0.4,0.3-0.9,0.4-1.4,0.4h-5.9v2.2h3.9c0.5,0,1,0.2,1.4,0.5
		c0.4,0.3,0.6,0.7,0.6,1.1c0,0.4-0.2,0.8-0.6,1.1c-0.4,0.3-0.9,0.5-1.4,0.5h-3.9v3.2h5.9C157.9,212.8,158.4,212.9,158.8,213.2z"/>
	<path fill="#F8F7F7" d="M167.5,201c0.9,0,1.8,0.1,2.6,0.4c0.8,0.3,1.5,0.7,2.1,1.1c0.6,0.5,1.1,1,1.5,1.7c0.4,0.6,0.6,1.3,0.6,2.1
		v4.3c0,0.7-0.2,1.4-0.6,2c-0.3,0.6-0.8,1.2-1.4,1.7c-0.6,0.5-1.3,0.9-2.1,1.2c-0.8,0.3-1.7,0.4-2.6,0.4c-0.9,0-1.8-0.1-2.6-0.4
		c-0.8-0.3-1.5-0.7-2.1-1.1c-0.6-0.5-1.1-1.1-1.5-1.7c-0.4-0.6-0.6-1.3-0.6-2.1v-4.3c0-0.7,0.2-1.4,0.6-2c0.4-0.6,0.8-1.2,1.4-1.7
		c0.6-0.5,1.3-0.9,2.1-1.2C165.7,201.2,166.6,201,167.5,201z M167.5,212.8c0.4,0,0.7-0.1,1.1-0.2c0.3-0.1,0.6-0.3,0.9-0.5
		c0.2-0.2,0.4-0.4,0.6-0.7c0.1-0.3,0.2-0.5,0.2-0.9v-4.3c0-0.3-0.1-0.6-0.2-0.8c-0.1-0.3-0.3-0.5-0.6-0.7c-0.2-0.2-0.5-0.3-0.9-0.5
		c-0.3-0.1-0.7-0.2-1.1-0.2c-0.4,0-0.8,0.1-1.1,0.2c-0.3,0.1-0.6,0.3-0.9,0.5c-0.3,0.2-0.5,0.4-0.6,0.7c-0.1,0.3-0.2,0.5-0.2,0.8
		v4.3c0,0.6,0.3,1.1,0.8,1.5C166.1,212.6,166.7,212.8,167.5,212.8z"/>
	<g>
		<g>
			<path fill="#F8F7F7" d="M191.1,201.1c0.6,0,1,0.2,1.4,0.5c0.4,0.3,0.6,0.7,0.6,1.1c0,0.4-0.2,0.8-0.6,1.1
				c-0.4,0.3-0.8,0.4-1.4,0.4h-3.2v10.1c0,0.4-0.2,0.8-0.5,1.1c-0.4,0.3-0.8,0.5-1.4,0.5c-0.6,0-1-0.1-1.4-0.5
				c-0.4-0.3-0.5-0.7-0.5-1.1v-10.1h-3.2c-0.5,0-1-0.1-1.4-0.4c-0.4-0.3-0.6-0.7-0.6-1.1c0-0.4,0.2-0.8,0.6-1.1
				c0.4-0.3,0.8-0.5,1.4-0.5H191.1z"/>
		</g>
	</g>
	<path fill="#F8F7F7" d="M203.4,215.6c-0.4,0.2-0.7,0.3-1.1,0.3c-0.4,0-0.8-0.1-1.1-0.3c-0.4-0.2-0.6-0.4-0.8-0.7l-5.9-11.6
		c-0.2-0.4-0.2-0.8,0-1.2c0.2-0.4,0.6-0.7,1.1-0.8c0.5-0.2,1-0.1,1.6,0c0.5,0.2,0.9,0.5,1.1,0.9l4,7.9l4-7.9
		c0.2-0.4,0.6-0.7,1.1-0.9c0.5-0.2,1-0.2,1.6,0c0.5,0.2,0.9,0.5,1.1,0.8c0.2,0.4,0.2,0.8,0,1.2l-5.9,11.6
		C204,215.2,203.7,215.4,203.4,215.6z"/>
</g>
<g>
	<path fill-rule="evenodd" clip-rule="evenodd" fill="#F8F7F7" d="M186.4,131.1c-0.1,0.6-0.3,1.2-0.4,1.8c-0.6,2.8-2.1,5-4.2,6.8
		c-0.5,0.4-0.9,0.8-1.4,1.1c-0.1,0.1-0.2,0.1-0.4,0.2c0.7-10.9-3-20.4-8.7-29.3c0,0,0.1-0.1,0.1-0.1c0.4,0.2,0.7,0.4,1.1,0.6
		c2.4,1.4,4.8,2.7,7.1,4.2c2.4,1.5,4.3,3.5,5.5,6c0.6,1.2,1,2.5,1.1,3.8c0,0.2,0.1,0.4,0.2,0.6C186.4,128.3,186.4,129.7,186.4,131.1
		z"/>
	<path fill-rule="evenodd" clip-rule="evenodd" fill="#F8F7F7" d="M98,94.4c0.1-0.5,0.3-1,0.4-1.5c0.6-2.3,1.8-4.2,3.3-5.9
		c1.8-2,4-3.5,6.4-4.6c0.7-0.3,1.5-0.5,2.3-0.8c-0.1,0.5-0.2,0.9-0.3,1.3c-1,3.3-2.1,6.5-3.1,9.8c-1.3,4.2-3.6,7.9-5.5,11.8
		c-1.1,2.1-2.1,4.2-3.1,6.3c0,0-0.1,0.1-0.2,0.2c0-0.3-0.1-0.5-0.1-0.7c0-2.5,0-5,0-7.5c0-0.2-0.1-0.4-0.2-0.6
		C98,99.6,98,97,98,94.4z"/>
	<path fill-rule="evenodd" clip-rule="evenodd" fill="#F8F7F7" d="M98,160.7c0.5,0.6,1,1.2,1.5,1.8c2.3,2.9,5.1,5.3,8.3,7.3
		c2.9,1.8,5.9,3.1,9.1,4.1c1.3,0.4,2.7,0.7,4,1c0.1,0,0.2,0.1,0.3,0.2c-0.5,0.2-0.9,0.4-1.4,0.5c-0.8,0.2-1.5,0.4-2.3,0.5
		c-0.2,0-0.3,0.1-0.5,0.2c-1.8,0-3.6,0-5.4,0c-0.4-0.1-0.8-0.2-1.2-0.3c-2.1-0.5-4.1-1.4-5.9-2.7c-2.9-2.2-5.2-5-6.1-8.6
		c-0.1-0.5-0.3-1-0.4-1.5C98,162.4,98,161.5,98,160.7z"/>
	<path fill-rule="evenodd" clip-rule="evenodd" fill="#F8F7F7" d="M170.7,138.5c0,2-0.3,4.4-1,6.7c-0.2,0.7-0.4,1.3-0.7,2
		c-0.1,0.2-0.3,0.4-0.6,0.6c-4.5,2.7-9.1,5.4-13.6,8.1c-6.3,3.6-12.6,7.2-18.9,10.8c-1,0.6-2.1,0.4-3.1,0.4c-1.5,0-2.9-0.1-4.4-0.3
		c-2.3-0.3-4.6-0.6-6.8-1.2c-3.9-0.9-7.5-2.5-10.8-4.9c-2.8-2.1-5-4.8-6.6-7.9c-1.4-2.9-2.3-5.9-2.6-9.1c-0.2-2-0.4-4.1-0.3-6.1
		c0.1-2.7,0.4-5.4,0.7-8.1c0.7-5,2.4-9.7,4.6-14.3c2.3-4.7,4.7-9.2,7-13.9c0.9-1.9,1.7-3.9,2.3-5.9c1-3.1,2-6.2,2.9-9.4
		c0.2-0.8,0.4-1.6,0.6-2.5c0.1-0.3,0.2-0.6,0.6-0.4c2.2,0.9,4.5,1.7,6.6,2.8c2.4,1.2,4.7,2.7,7,4c2.9,1.7,5.9,3.3,8.8,5.2
		c2.1,1.4,4,3,5.9,4.6c3.2,2.7,6,5.6,8.7,8.8c2.8,3.3,5.3,6.7,7.5,10.4c2,3.3,3.6,6.8,4.8,10.6C170.2,132.3,170.7,135.1,170.7,138.5
		z M163.1,136.5c0-5.7-4.3-10.4-10.4-10.5c-5.8-0.1-10.2,4.3-10.4,10c-0.2,6,4.4,10.7,10.1,10.8C158.4,147,163,142.5,163.1,136.5z
		 M128.1,142.1c-4.8-0.1-8.7,3.7-8.6,8.5c0,4.9,3.7,8.5,8.6,8.5c4.9,0,8.6-3.8,8.5-8.8C136.4,145.7,132.9,142.1,128.1,142.1z"/>
</g>
</svg>
